<?xml version="1.0" standalone="no"?>
<!DOCTYPE svg PUBLIC "-//W3C//DTD SVG 20010904//EN"
 "http://www.w3.org/TR/2001/REC-SVG-20010904/DTD/svg10.dtd">
<svg version="1.0" xmlns="http://www.w3.org/2000/svg"
 width="64.000000pt" height="64.000000pt" viewBox="0 0 64.000000 64.000000"
 preserveAspectRatio="xMidYMid meet">
<metadata>
Created by potrace 1.16, written by Peter Selinger 2001-2019
</metadata>
<g transform="translate(0.000000,64.000000) scale(0.100000,-0.100000)"
fill="#000000" stroke="none">
<path d="M220 567 c-49 -16 -133 -102 -148 -153 -15 -53 -15 -135 0 -188 16
-55 99 -138 154 -154 98 -29 211 -6 278 56 67 63 94 184 64 286 -16 55 -99
138 -154 154 -50 15 -146 14 -194 -1z m195 -36 c145 -66 181 -255 72 -370 -37
-39 -124 -81 -167 -81 -40 0 -129 41 -164 76 -111 111 -79 299 64 375 47 24
142 25 195 0z"/>
</g>
</svg>
